<svg width="100" height="100" xmlns="http://www.w3.org/2000/svg">
  <g fill="none" stroke="white" stroke-width="1.5" stroke-linecap="round" stroke-linejoin="round">
    <!-- Upload Icon at top-left -->
    <g transform="translate(13, 13 ) scale(0.5)">
      <path d="M4 14.899A7 7 0 1 1 15.71 8h1.79a4.5 4.5 0 0 1 2.5 8.242"/>
      <path d="M12 12v9"/>
      <path d="m16 16-4-4-4 4"/>
    </g>
    <!-- Convert Icon at top-right -->
    <g transform="translate(63, 13) scale(0.5)">
      <path d="m20 8-3-3-3 3"/>
      <path d="M4 16l3 3 3-3"/>
      <path d="M17 5v10a2 2 0 0 1-2 2H7"/>
      <path d="M7 19V9a2 2 0 0 1 2-2h8"/>
    </g>
    <!-- Download Icon at bottom-left -->
    <g transform="translate(13, 63) scale(0.5)">
      <path d="M21 15v4a2 2 0 0 1-2 2H5a2 2 0 0 1-2-2v-4"/>
      <polyline points="7 10 12 15 17 10"/>
      <line x1="12" y1="15" x2="12" y2="3"/>
    </g>
    <!-- Upload Icon again at bottom-right for balance -->
    <g transform="translate(63, 63) scale(0.5)">
      <path d="M4 14.899A7 7 0 1 1 15.71 8h1.79a4.5 4.5 0 0 1 2.5 8.242"/>
      <path d="M12 12v9"/>
      <path d="m16 16-4-4-4 4"/>
    </g>
  </g>
</svg>
