<svg width="100" height="100" xmlns="http://www.w3.org/2000/svg">
  <!-- This group sets the style for all icons in the pattern -->
  <g fill="none" stroke="white" stroke-width="2" stroke-linecap="round" stroke-linejoin="round">

    <!-- Define the "download" icon shape to be reused -->
    <defs>
      <g id="download-icon">
        <circle cx="50" cy="50" r="47"/>
        <g clip-path="url(#main-circle-clipper-for-download )">
          <circle cx="3" cy="3" r="47"/>
          <circle cx="97" cy="3" r="47"/>
          <circle cx="3" cy="97" r="47"/>
          <circle cx="97" cy="97" r="47"/>
        </g>
      </g>
      <clipPath id="main-circle-clipper-for-download">
        <circle cx="50" cy="50" r="47"/>
      </clipPath>
    </defs>

    <!-- 1. UPLOAD ICON (top-left) - USING YOUR NEW DESIGN -->
    <g transform="translate(13, 13) scale(0.24)">
      <circle cx="50" cy="50" r="47"/>
      <circle cx="29.1" cy="50" r="10.4"/>
      <circle cx="70.9" cy="50" r="10.4"/>
    </g>

    <!-- 2. CONVERT ICON (top-right) -->
    <g transform="translate(63, 13) scale(0.24)">
      <circle cx="50" cy="50" r="47"/>
      <path d="M 50,3 A 23.5,23.5 0 0 1 50,50" transform="rotate(0, 50, 50)" />
      <path d="M 50,3 A 23.5,23.5 0 0 1 50,50" transform="rotate(120, 50, 50)" />
      <path d="M 50,3 A 23.5,23.5 0 0 1 50,50" transform="rotate(240, 50, 50)" />
    </g>

    <!-- 3. DOWNLOAD ICON (bottom-left) -->
    <g transform="translate(13, 63) scale(0.24)">
      <use href="#download-icon"/>
    </g>

    <!-- 4. UPLOAD ICON again for balance (bottom-right) - USING YOUR NEW DESIGN -->
    <g transform="translate(63, 63) scale(0.24)">
      <circle cx="50" cy="50" r="47"/>
      <circle cx="29.1" cy="50" r="10.4"/>
      <circle cx="70.9" cy="50" r="10.4"/>
    </g>
    
  </g>
</svg>
