<svg width="300" height="100" xmlns="http://www.w3.org/2000/svg">
  <!-- This group sets the style for all icons in the pattern -->
  <g fill="none" stroke="white" stroke-width="2" stroke-linecap="round" stroke-linejoin="round">

    <!-- Define the "download" icon shape to be reused -->
    <defs>
      <g id="download-icon">
        <circle cx="50" cy="50" r="47"/>
        <g clip-path="url(#main-circle-clipper-for-download )">
          <circle cx="3" cy="3" r="47"/>
          <circle cx="97" cy="3" r="47"/>
          <circle cx="3" cy="97" r="47"/>
          <circle cx="97" cy="97" r="47"/>
        </g>
      </g>
      <clipPath id="main-circle-clipper-for-download">
        <circle cx="50" cy="50" r="47"/>
      </clipPath>
    </defs>

    <!-- Icon 1: UPLOAD (Positioned at x=0) -->
    <g transform="translate(0, 0)">
      <circle cx="50" cy="50" r="47"/>
      <circle cx="29.1" cy="50" r="10.4"/>
      <circle cx="70.9" cy="50" r="10.4"/>
    </g>

    <!-- Icon 2: CONVERT (Positioned at x=100) -->
    <g transform="translate(100, 0)">
      <circle cx="50" cy="50" r="47"/>
      <path d="M 50,3 A 23.5,23.5 0 0 1 50,50" transform="rotate(0, 50, 50)" />
      <path d="M 50,3 A 23.5,23.5 0 0 1 50,50" transform="rotate(120, 50, 50)" />
      <path d="M 50,3 A 23.5,23.5 0 0 1 50,50" transform="rotate(240, 50, 50)" />
    </g>

    <!-- Icon 3: DOWNLOAD (Positioned at x=200) -->
    <g transform="translate(200, 0)">
      <use href="#download-icon"/>
    </g>
    
  </g>
</svg>
